<svg id="Layer_1" height="512" viewBox="0 0 512 512" width="512" xmlns="http://www.w3.org/2000/svg" data-name="Layer 1"><path d="m429.662 20.6-52.035 36.9-9.455-9.334a20.888 20.888 0 0 0 -29.236 0 20.435 20.435 0 0 0 0 29.08l19.885 19.629-16.216 16.007-22.669-11.972a26.883 26.883 0 0 0 -36.1 10.826 26.024 26.024 0 0 0 -2.026 20.087 26.3 26.3 0 0 0 12.99 15.743l8.258 4.362-10.138 10.008-22.669-11.974a26.885 26.885 0 0 0 -36.1 10.827 26.025 26.025 0 0 0 -2.025 20.088 26.3 26.3 0 0 0 12.987 15.741l8.258 4.362-10.071 9.932-22.668-11.973a26.884 26.884 0 0 0 -36.1 10.826 26.028 26.028 0 0 0 -2.025 20.089 26.3 26.3 0 0 0 12.987 15.74l8.257 4.362-10.151 10.024-22.668-11.973a26.885 26.885 0 0 0 -36.1 10.826 26.03 26.03 0 0 0 -2.025 20.088 26.7 26.7 0 0 0 1.9 4.648l-12.853-12.688a6 6 0 0 0 -9.2.929l-12.812 19.1a28.5 28.5 0 0 0 3.6 36.071l-27.853 27.319a5.967 5.967 0 0 0 -1.235 1.762h-.006l-18.643 40.183a52.634 52.634 0 0 0 -31.349 14.855 51.644 51.644 0 0 0 0 73.678 53.167 53.167 0 0 0 74.417 0 51.432 51.432 0 0 0 15.112-30.989l40.574-18.5-.008-.017a5.954 5.954 0 0 0 1.72-1.158l27.982-27.446.421.415a28.623 28.623 0 0 0 35.579 3.571l19.821-12.954a6 6 0 0 0 .932-9.293l-30.3-29.906 19.494-19.301 22.661 11.97a26.887 26.887 0 0 0 36.1-10.826 26.03 26.03 0 0 0 2.026-20.088 26.308 26.308 0 0 0 -12.988-15.742l-8.258-4.362 10.159-10.025 22.671 11.973a26.887 26.887 0 0 0 36.1-10.826 26.03 26.03 0 0 0 2.026-20.088 26.305 26.305 0 0 0 -12.988-15.742l-8.257-4.362 10.06-9.932 22.669 11.973a26.89 26.89 0 0 0 36.1-10.827 26.028 26.028 0 0 0 2.024-20.089 26.3 26.3 0 0 0 -12.986-15.74l-8.259-4.362 10.146-10.005 22.668 11.974a26.888 26.888 0 0 0 36.1-10.825 25.968 25.968 0 0 0 2.893-16.2 20.879 20.879 0 0 0 25.654-2.811 20.434 20.434 0 0 0 0-29.079l-9.363-9.242 37.3-51.245a45.313 45.313 0 0 0 -4.878-59.261 46.626 46.626 0 0 0 -59.818-4.811zm-62.3 84.708 41.291 40.762-1.122 1.108-53.8-28.416zm-277.02 370.931a41.118 41.118 0 0 1 -57.555 0 39.643 39.643 0 0 1 0-56.6 41.118 41.118 0 0 1 57.555 0 39.64 39.64 0 0 1 0 56.6zm23.368-35.557a51.444 51.444 0 0 0 -14.937-29.582 52.6 52.6 0 0 0 -29.918-14.688l12.79-27.571 59.913 59.145zm38.274-19.265-63.639-62.823 23.629-23.175 63.638 62.822zm75.2-29.69-13.6 8.886a16.561 16.561 0 0 1 -20.584-2.066l-81.088-80.047a16.488 16.488 0 0 1 -2.108-20.9l8.774-13.083zm-81.068-96.89 7.957 4.2-1.842 1.833zm55.955 55.238-41.3-40.771 4.417-4.394 53.794 28.414zm70.229-34.952a14.385 14.385 0 0 1 7.106 8.609 14.1 14.1 0 0 1 -1.091 10.891 14.848 14.848 0 0 1 -19.947 5.935l-106.979-56.5a14.391 14.391 0 0 1 -7.106-8.61 14.109 14.109 0 0 1 1.09-10.891 14.861 14.861 0 0 1 19.948-5.933zm-67.579-49.265 10.154-10.025 53.8 28.416-10.154 10.024zm117.285.2a14.386 14.386 0 0 1 7.106 8.611 14.1 14.1 0 0 1 -1.09 10.891 14.847 14.847 0 0 1 -19.948 5.933l-106.974-56.51a14.387 14.387 0 0 1 -7.106-8.608 14.111 14.111 0 0 1 1.09-10.892 14.861 14.861 0 0 1 19.948-5.933zm-67.577-49.268 10.061-9.933 53.8 28.416-10.061 9.932zm117.192.289a14.383 14.383 0 0 1 7.106 8.609 14.1 14.1 0 0 1 -1.09 10.891 14.848 14.848 0 0 1 -19.948 5.934l-106.981-56.5a14.392 14.392 0 0 1 -7.107-8.61 14.109 14.109 0 0 1 1.091-10.891 14.845 14.845 0 0 1 19.949-5.934zm-67.579-49.266 10.138-10.008 53.8 28.415-10.14 10.009zm123.284 19.714a14.845 14.845 0 0 1 -19.948 5.933l-106.978-56.504a14.39 14.39 0 0 1 -7.106-8.61 14.107 14.107 0 0 1 1.091-10.892 14.847 14.847 0 0 1 19.947-5.934l106.978 56.505a14.387 14.387 0 0 1 7.107 8.611 14.105 14.105 0 0 1 -1.091 10.891zm30.668-33.827a8.435 8.435 0 0 1 0 12 8.844 8.844 0 0 1 -12.377 0l-98.251-96.99a8.435 8.435 0 0 1 0-12 8.842 8.842 0 0 1 12.376 0zm26.659-76.09-36.228 49.78-62.125-61.328 50.3-35.676a34.644 34.644 0 0 1 44.444 3.564 33.383 33.383 0 0 1 3.609 43.66z"/><path d="m442.229 42.119a21.094 21.094 0 0 0 0 30.134 21.711 21.711 0 0 0 30.339 0 21.1 21.1 0 0 0 0-30.135 21.711 21.711 0 0 0 -30.339.001zm21.919 21.581a9.662 9.662 0 0 1 -13.5 0 9.1 9.1 0 0 1 0-13.036 9.663 9.663 0 0 1 13.5 0 9.1 9.1 0 0 1 0 13.034z"/><path d="m42.41 428.922a26.668 26.668 0 0 0 0 38.036 27.372 27.372 0 0 0 38.31 0 26.671 26.671 0 0 0 0-38.036 27.374 27.374 0 0 0 -38.31 0zm29.879 29.495a15.323 15.323 0 0 1 -21.449 0 14.668 14.668 0 0 1 0-20.955 15.325 15.325 0 0 1 21.449 0 14.668 14.668 0 0 1 0 20.955z"/></svg>