<?xml version="1.0" encoding="iso-8859-1"?>
<!-- Generator: Adobe Illustrator 19.0.0, SVG Export Plug-In . SVG Version: 6.00 Build 0)  -->
<svg version="1.1" id="Capa_1" xmlns="http://www.w3.org/2000/svg" xmlns:xlink="http://www.w3.org/1999/xlink" x="0px" y="0px"
	 viewBox="0 0 480 480" style="enable-background:new 0 0 480 480;" xml:space="preserve">
<g>
	<g>
		<path d="M444,432h-8V200C436,89.543,346.457,0,236,0S36,89.543,36,200v176h-8v16h8.696L44,472.728
			c0.378,4.132,3.851,7.289,8,7.272h24c4.149,0.017,7.622-3.14,8-7.272L91.304,392H100v-16h-8v-37.296
			c76.413,79.497,202.804,81.997,282.301,5.584c1.938-1.863,3.838-3.764,5.699-5.704V432h-8c-4.418,0-8,3.582-8,8v32
			c0,4.418,3.582,8,8,8h72c4.418,0,8-3.582,8-8v-32C452,435.582,448.418,432,444,432z M68.696,464h-9.392L52.8,392h22.48L68.696,464
			z M236,384c-55.902,0.121-108.801-25.288-143.648-69L92,315.28v-46c38.471,79.321,133.959,112.437,213.281,73.967
			c79.321-38.47,112.437-133.959,73.967-213.281C340.777,50.645,245.288,17.529,165.967,55.999
			C110.818,82.746,75.855,138.708,76,200v176H52V200C52,98.38,134.38,16,236,16s184,82.38,184,184S337.62,384,236,384z M92,200
			c0-79.529,64.471-144,144-144s144,64.471,144,144s-64.471,144-144,144C156.509,343.907,92.093,279.491,92,200z M396,400v-80
			h-0.112c9.685-12.864,17.781-26.85,24.112-41.656V400H396z M420,416v16h-24v-16H420z M436,464h-56v-16h56V464z"/>
	</g>
</g>
<g>
	<g>
		<path d="M236,80c-66.274,0-120,53.726-120,120c0.075,66.243,53.757,119.925,120,120c66.274,0,120-53.726,120-120
			S302.274,80,236,80z M236,304c-57.438,0-104-46.562-104-104c0.066-57.41,46.59-103.934,104-104c57.438,0,104,46.562,104,104
			S293.438,304,236,304z"/>
	</g>
</g>
<g>
	<g>
		<path d="M236,120c-44.183,0-80,35.817-80,80c0.049,44.163,35.837,79.951,80,80c44.183,0,80-35.817,80-80
			C316,155.817,280.183,120,236,120z M236,264c-35.346,0-64-28.654-64-64c0.04-35.33,28.67-63.96,64-64c35.346,0,64,28.654,64,64
			C300,235.346,271.346,264,236,264z"/>
	</g>
</g>
<g>
</g>
<g>
</g>
<g>
</g>
<g>
</g>
<g>
</g>
<g>
</g>
<g>
</g>
<g>
</g>
<g>
</g>
<g>
</g>
<g>
</g>
<g>
</g>
<g>
</g>
<g>
</g>
<g>
</g>
</svg>
